<?xml version="1.0" encoding="utf-8"?>
<!-- Generator: Adobe Illustrator 26.5.0, SVG Export Plug-In . SVG Version: 6.00 Build 0)  -->
<svg version="1.1" id="Layer_1" xmlns="http://www.w3.org/2000/svg" xmlns:xlink="http://www.w3.org/1999/xlink" x="0px" y="0px"
	 viewBox="0 0 164 50" style="enable-background:new 0 0 164 50;" xml:space="preserve">
<style type="text/css">
	.st0{fill:#2CB1BC;}
	.st1{fill:#FFFFFF;}
	.st2{font-family:'Rustica-Bold';}
	.st3{font-size:25px;}
	.st4{font-size:37.4249px;}
	.st5{letter-spacing:1;}
</style>
<path class="st0" d="M78.6,16.5v11.9c0,1.9-0.5,3.3-1.6,4.3c-1,1-2.4,1.5-4.2,1.5c-1.8,0-3.3-0.5-4.5-1.6c-1.1-1-1.7-2.5-1.7-4.5
	h4.2c0,0.7,0.2,1.3,0.4,1.7c0.3,0.4,0.7,0.6,1.3,0.6c0.5,0,0.9-0.2,1.2-0.5c0.3-0.3,0.4-0.8,0.4-1.5V16.5H78.6z M90.9,34.2
	c-1.4,0-2.6-0.3-3.7-0.9c-1.1-0.6-1.9-1.4-2.6-2.5c-0.6-1.1-0.9-2.4-0.9-3.8c0-1.4,0.3-2.7,1-3.8c0.6-1.1,1.5-1.9,2.6-2.5
	s2.3-0.9,3.7-0.9c1.4,0,2.6,0.3,3.7,0.9c1.1,0.6,2,1.4,2.6,2.5c0.6,1.1,0.9,2.3,0.9,3.8s-0.3,2.7-1,3.8c-0.6,1.1-1.5,1.9-2.6,2.5
	C93.5,33.9,92.2,34.2,90.9,34.2z M90.9,30.5c0.8,0,1.5-0.3,2.1-0.9c0.6-0.6,0.9-1.5,0.9-2.6c0-1.1-0.3-2-0.8-2.6
	c-0.6-0.6-1.2-0.9-2.1-0.9c-0.8,0-1.5,0.3-2.1,0.9C88.3,25,88,25.9,88,27c0,1.1,0.3,2,0.8,2.6C89.4,30.2,90,30.5,90.9,30.5z
	 M107.2,22c0.4-0.6,1-1.2,1.7-1.6c0.8-0.4,1.6-0.6,2.6-0.6c1.2,0,2.2,0.3,3.1,0.9s1.7,1.4,2.2,2.5c0.6,1.1,0.8,2.3,0.8,3.8
	s-0.3,2.7-0.8,3.8c-0.5,1.1-1.3,1.9-2.2,2.5c-0.9,0.6-2,0.9-3.1,0.9c-1,0-1.8-0.2-2.6-0.6c-0.7-0.4-1.3-0.9-1.7-1.6v2h-4.3V15.5h4.3
	V22z M113.3,27c0-1.1-0.3-1.9-0.9-2.5c-0.6-0.6-1.3-0.9-2.2-0.9c-0.8,0-1.6,0.3-2.2,0.9c-0.6,0.6-0.9,1.5-0.9,2.5s0.3,1.9,0.9,2.5
	c0.6,0.6,1.3,0.9,2.2,0.9s1.6-0.3,2.2-0.9C113,28.9,113.3,28.1,113.3,27z M124.5,18.6c-0.8,0-1.4-0.2-1.8-0.6
	c-0.5-0.5-0.7-1-0.7-1.7c0-0.7,0.2-1.2,0.7-1.6c0.5-0.4,1.1-0.7,1.8-0.7c0.7,0,1.3,0.2,1.8,0.7c0.5,0.4,0.7,1,0.7,1.6
	c0,0.7-0.2,1.2-0.7,1.7C125.9,18.4,125.3,18.6,124.5,18.6z M126.7,20v14h-4.3V20H126.7z M139.3,23.6H137V34h-4.3V23.6h-1.6V20h1.6
	v-0.4c0-1.7,0.5-3,1.5-3.9c1-0.9,2.4-1.4,4.3-1.4c0.3,0,0.6,0,0.7,0V18c-0.8,0-1.4,0.1-1.7,0.4c-0.3,0.3-0.5,0.8-0.5,1.5V20h2.3
	V23.6z M158,20l-8.8,20.6h-4.6l3.2-7.1L142.2,20h4.8l3.2,8.7l3.2-8.7H158z"/>
<path class="st0" d="M10,0h30c5.5,0,10,4.5,10,10v30c0,5.5-4.5,10-10,10H10C4.5,50,0,45.5,0,40V10C0,4.5,4.5,0,10,0z"/>
<path class="st1" d="M26,9.6h5.9v19.7c0,1.8-0.4,3.4-1.2,4.8c-0.8,1.4-1.9,2.4-3.4,3.2c-1.5,0.8-3.1,1.1-4.9,1.1c-3,0-5.4-0.8-7-2.3
	c-1.7-1.5-2.5-3.7-2.5-6.5h5.9c0,1.4,0.3,2.4,0.9,3.1c0.6,0.7,1.5,1,2.8,1c1.1,0,2-0.4,2.7-1.2c0.7-0.8,1-1.9,1-3.3V9.6z"/>
<rect x="59.6" class="st1" width="104.4" height="50"/>
<path class="st0" d="M38.8,50H11.2C5,50,0,45,0,38.8V11.2C0,5,5,0,11.2,0h27.5C45,0,50,5,50,11.2v27.5C50,45,45,50,38.8,50z"/>
<text transform="matrix(1 0 0 1 61.8962 33.9999)" class="st0 st2 st3">Mealify</text>
<text transform="matrix(1 0 0 1 8.7397 38.3906)" class="st1 st2 st4 st5">M</text>
</svg>
