<?xml version="1.0" encoding="utf-8"?>
<!-- Generator: Adobe Illustrator 26.5.0, SVG Export Plug-In . SVG Version: 6.00 Build 0)  -->
<svg version="1.1" id="Layer_1" xmlns="http://www.w3.org/2000/svg" xmlns:xlink="http://www.w3.org/1999/xlink" x="0px" y="0px"
	 viewBox="0 0 164 50" style="enable-background:new 0 0 164 50;" xml:space="preserve">
<style type="text/css">
	.st0{fill:#2CB1BC;}
	.st1{enable-background:new    ;}
	.st2{fill:#FFFFFF;}
</style>
<path class="st0" d="M10,0h30c5.5,0,10,4.5,10,10v30c0,5.5-4.5,10-10,10H10C4.5,50,0,45.5,0,40V10C0,4.5,4.5,0,10,0z"/>
<g class="st1">
	<path class="st0" d="M72.6,30.9l-4.1-6.5v10.1h-4.3V16.9h3.9l5.4,8.8l5.4-8.8h3.9v17.6h-4.3V24.4l-4.1,6.5H72.6z"/>
	<path class="st0" d="M97.4,27.6c0,0.5,0,1.1-0.1,1.5h-8c0.2,1.6,1.7,2.2,3.4,2.2c1.5,0,3.1-0.5,3.8-1V34c-1.1,0.6-2.8,0.8-4.4,0.8
		c-4.1,0-7.2-2.3-7.2-6.6c0-3.7,2.7-6.6,6.5-6.6C95.3,21.5,97.4,24.3,97.4,27.6z M89.2,26.8h4.2c-0.1-1.1-0.9-1.8-2.1-1.8
		C90.1,24.9,89.4,25.7,89.2,26.8z"/>
	<path class="st0" d="M104.1,21.5c3.2,0,6,1.6,6,5.2v7.8h-4V33c-0.6,1-1.9,1.8-3.4,1.8c-2.4,0-4.1-1.5-4.1-3.5
		c0-2.1,1.6-3.5,4.4-3.9l3.1-0.4v-0.2c0-1-0.9-1.5-2.3-1.5c-1.7,0-3.3,0.7-4.2,1.3v-3.8C100.7,22,102.4,21.5,104.1,21.5z
		 M106.1,29.5v-0.2l-2,0.3c-0.9,0.1-1.5,0.5-1.5,1.2s0.5,1,1.3,1C105,31.7,106.1,30.8,106.1,29.5z"/>
	<path class="st0" d="M112.8,16.9h4.3v13c0,0.8,0.3,1.2,1.1,1.2c0.3,0,0.6,0,0.8-0.1v3.5c-0.5,0.2-1.2,0.3-2,0.3
		c-2.6,0-4.2-1.4-4.2-4.1V16.9z"/>
	<path class="st0" d="M125.5,18.3c0,1.3-1,2.2-2.3,2.2c-1.3,0-2.3-0.9-2.3-2.2s1-2.2,2.3-2.2C124.5,16.1,125.5,17,125.5,18.3z
		 M121.1,21.8h4.3v12.7h-4.3V21.8z"/>
	<path class="st0" d="M133.5,21.8h2.5v3.3h-2.5v9.4h-4.3v-9.4h-1.7v-3.3h1.7v-0.6c0-2.9,1.9-4.7,5.1-4.7c0.9,0,1.6,0.1,2,0.3v3.4
		c-0.3-0.1-0.7-0.2-1.2-0.2c-1,0-1.7,0.4-1.7,1.3V21.8z"/>
	<path class="st0" d="M136.9,35.7c0.6,0.3,1.3,0.4,1.9,0.4c1.3,0,2.1-0.7,2.5-2.2l-5-12.1h4.4l2.7,7.9l2.6-7.9h4.3L145,35.1
		c-1.2,3.2-2.9,4.6-5.7,4.6c-0.8,0-1.7-0.2-2.4-0.5V35.7z"/>
</g>
<g class="st1">
	<path class="st2" d="M23.5,33.1l-6.6-10.6V39h-7V10.2h6.4L25,24.6l8.8-14.4h6.4V39h-7V22.5l-6.6,10.6H23.5z"/>
</g>
</svg>
